<svg id="Layer_2" data-name="Layer 2" xmlns="http://www.w3.org/2000/svg" width="500" height="500" viewBox="0 0 500 500">
  <defs>
    <style>
      .cls-1 {
        fill: #fff;
      }

      .cls-2 {
        fill: #f99e29;
      }
    </style>
  </defs>
  <title>Team_Logos_Philly_Alt</title>
  <g>
    <path class="cls-1" d="M367.94,154.83H172.6V249.9H91.44L172.31,302l.58,99.94,57.64-53.27V302.3l115,.31,49.1-49.1V180S397.16,154.33,367.94,154.83ZM230.53,206.66H328c3.06.09,13.38,1.26,12.92,12.89v12.57l-17,17q-.82.12-1.71.21H230.53Z"/>
    <g>
      <path class="cls-2" d="M159.63,186c-15.86-39.15-18.85-71.87-7-90.89h0c-15.5-1.3-33.12,6.25-33.12,6.25,45.66-39.6,99.92-18.68,99.92-18.68h0c29.17,9.2,63.8,30,98.58,59.2h23.81C262.45,63.24,176.38,18.85,133.3,39s-29.8,98,26.33,186.9Z"/>
      <path class="cls-2" d="M485,387.7a111.16,111.16,0,0,0-1.26-13.4l-.34-.06c-2.42-16.44-7.9-35-16.24-55A459.15,459.15,0,0,0,435.69,259l0,0h0q4.77-6,9-11.87a221.55,221.55,0,0,0,22.4-39.43c9.38-23.71,8.4-43.28-5-55.7-15.74-14.58-46.18-17.08-84.81-9.43a38.63,38.63,0,0,1,14,5c28.55-5.49,57.9-3.13,69.11,13.65,18.83,28.19-30,89.3-30,89.3-.86-1.35-1.74-2.73-2.64-4.11-1.34-2-2.69-4.07-4.07-6.12-5.33-7.85-11-15.75-16.06-22.51v18.68c9.61,13.39,15.59,22.89,15.44,23.09-10.1,13.14-25.06,27.67-39.24,40.28Q371.24,311.18,357,322.52l0,0c-7.68,6.16-12.7,9.94-12.7,9.94l-.06-.05q-10,7.5-20.71,14.89c-3,2.05-6,4.05-8.95,6a25.92,25.92,0,0,0-14.32-7.48c-14.46-2.45-28.59,7-31.57,21a24.66,24.66,0,0,0,1,13.76C185.67,427,106.14,445.36,75.38,422.84l-.91,4.33C71.93,440.62,77,456.74,77,456.74,57.63,429.19,59.81,400.84,64,383.69c6-26,29.18-59.47,65.22-94L115.74,281C33.36,351.47-6,422.39,26.21,452.19c35,32.4,142.59,5.16,251.28-60.68a26,26,0,0,0,11.89,5.25c14.46,2.46,28.59-6.95,31.57-21a24.61,24.61,0,0,0-.49-12.3c12.7-8.92,24.77-18,36.14-27.1l.07,0q4.59-3.73,8.91-7.38h0c34.17-28.86,55.94-53.23,61.43-59.56l1.32-1.54h0l.05-.06c13.68,21.59,23.29,40.62,30,57.07,7.07,17.07,11.72,33,13.8,47.07l-.23-.05a125.54,125.54,0,0,1,1.3,13.18l.13,0q.11,3.81-.09,7.4a46.38,46.38,0,0,1-1,9.14h0c-2.63,13.85-9.6,24.1-21.24,29.54-19.23,9-48.15,3.4-81-13.26h0s-17.13-7.94-51-27.24c0,0,9.23,12.14,42.6,32.73,39.79,21.27,74.9,28.83,97.83,18.11,16.37-7.66,24.59-23.73,25.38-45.62l-.07,0s0-.25.09-.73q.11-3.66-.06-7.55A2.47,2.47,0,0,0,485,387.7Z"/>
    </g>
  </g>
</svg>
